<?xml version="1.0" encoding="utf-8"?><!DOCTYPE svg PUBLIC "-//W3C//DTD SVG 1.1//EN" "http://www.w3.org/Graphics/SVG/1.1/DTD/svg11.dtd"><svg xmlns:xlink="http://www.w3.org/1999/xlink" xmlns="http://www.w3.org/2000/svg" id="map" viewBox="0 0 222 222" width="270" height="270" data-dot="6"><rect x="0" y="0" height="222" width="222" fill="#ffffff"/><defs/><g fill="#000000"><rect x="24" y="180" width="18" height="18" transform="rotate(-90,33,189)"/><path clip-rule="evenodd" class="svgeye" d="M 12 168v 42h 42v -42zM 18 174h 30v 30h -30z" transform="rotate(-90,33,189)"/><rect x="180" y="24" width="18" height="18" transform="rotate(90,189,33)"/><path clip-rule="evenodd" class="svgeye" d="M 168 12v 42h 42v -42zM 174 18h 30v 30h -30z" transform="rotate(90,189,33)"/><rect x="24" y="24" width="18" height="18" transform="rotate(0,33,33)"/><path clip-rule="evenodd" class="svgeye" d="M 12 12v 42h 42v -42zM 18 18h 30v 30h -30z" transform="rotate(0,33,33)"/><rect x="72" y="12" width="6" height="6" transform="rotate(0,75,15)"/><rect x="78" y="12" width="6" height="6" transform="rotate(0,81,15)"/><rect x="84" y="12" width="6" height="6" transform="rotate(0,87,15)"/><rect x="90" y="12" width="6" height="6" transform="rotate(0,93,15)"/><rect x="96" y="12" width="6" height="6" transform="rotate(0,99,15)"/><rect x="108" y="12" width="6" height="6" transform="rotate(0,111,15)"/><rect x="114" y="12" width="6" height="6" transform="rotate(0,117,15)"/><rect x="138" y="12" width="6" height="6" transform="rotate(0,141,15)"/><rect x="144" y="12" width="6" height="6" transform="rotate(0,147,15)"/><rect x="60" y="18" width="6" height="6" transform="rotate(0,63,21)"/><rect x="66" y="18" width="6" height="6" transform="rotate(0,69,21)"/><rect x="90" y="18" width="6" height="6" transform="rotate(0,93,21)"/><rect x="96" y="18" width="6" height="6" transform="rotate(0,99,21)"/><rect x="102" y="18" width="6" height="6" transform="rotate(0,105,21)"/><rect x="120" y="18" width="6" height="6" transform="rotate(0,123,21)"/><rect x="126" y="18" width="6" height="6" transform="rotate(0,129,21)"/><rect x="144" y="18" width="6" height="6" transform="rotate(0,147,21)"/><rect x="66" y="24" width="6" height="6" transform="rotate(0,69,27)"/><rect x="102" y="24" width="6" height="6" transform="rotate(0,105,27)"/><rect x="126" y="24" width="6" height="6" transform="rotate(0,129,27)"/><rect x="132" y="24" width="6" height="6" transform="rotate(0,135,27)"/><rect x="138" y="24" width="6" height="6" transform="rotate(0,141,27)"/><rect x="144" y="24" width="6" height="6" transform="rotate(0,147,27)"/><rect x="60" y="30" width="6" height="6" transform="rotate(0,63,33)"/><rect x="72" y="30" width="6" height="6" transform="rotate(0,75,33)"/><rect x="78" y="30" width="6" height="6" transform="rotate(0,81,33)"/><rect x="102" y="30" width="6" height="6" transform="rotate(0,105,33)"/><rect x="108" y="30" width="6" height="6" transform="rotate(0,111,33)"/><rect x="120" y="30" width="6" height="6" transform="rotate(0,123,33)"/><rect x="132" y="30" width="6" height="6" transform="rotate(0,135,33)"/><rect x="138" y="30" width="6" height="6" transform="rotate(0,141,33)"/><rect x="60" y="36" width="6" height="6" transform="rotate(0,63,39)"/><rect x="72" y="36" width="6" height="6" transform="rotate(0,75,39)"/><rect x="78" y="36" width="6" height="6" transform="rotate(0,81,39)"/><rect x="90" y="36" width="6" height="6" transform="rotate(0,93,39)"/><rect x="96" y="36" width="6" height="6" transform="rotate(0,99,39)"/><rect x="114" y="36" width="6" height="6" transform="rotate(0,117,39)"/><rect x="138" y="36" width="6" height="6" transform="rotate(0,141,39)"/><rect x="78" y="42" width="6" height="6" transform="rotate(0,81,45)"/><rect x="102" y="42" width="6" height="6" transform="rotate(0,105,45)"/><rect x="108" y="42" width="6" height="6" transform="rotate(0,111,45)"/><rect x="120" y="42" width="6" height="6" transform="rotate(0,123,45)"/><rect x="126" y="42" width="6" height="6" transform="rotate(0,129,45)"/><rect x="138" y="42" width="6" height="6" transform="rotate(0,141,45)"/><rect x="144" y="42" width="6" height="6" transform="rotate(0,147,45)"/><rect x="150" y="42" width="6" height="6" transform="rotate(0,153,45)"/><rect x="156" y="42" width="6" height="6" transform="rotate(0,159,45)"/><rect x="60" y="48" width="6" height="6" transform="rotate(0,63,51)"/><rect x="72" y="48" width="6" height="6" transform="rotate(0,75,51)"/><rect x="84" y="48" width="6" height="6" transform="rotate(0,87,51)"/><rect x="96" y="48" width="6" height="6" transform="rotate(0,99,51)"/><rect x="108" y="48" width="6" height="6" transform="rotate(0,111,51)"/><rect x="120" y="48" width="6" height="6" transform="rotate(0,123,51)"/><rect x="132" y="48" width="6" height="6" transform="rotate(0,135,51)"/><rect x="144" y="48" width="6" height="6" transform="rotate(0,147,51)"/><rect x="156" y="48" width="6" height="6" transform="rotate(0,159,51)"/><rect x="60" y="54" width="6" height="6" transform="rotate(0,63,57)"/><rect x="66" y="54" width="6" height="6" transform="rotate(0,69,57)"/><rect x="72" y="54" width="6" height="6" transform="rotate(0,75,57)"/><rect x="90" y="54" width="6" height="6" transform="rotate(0,93,57)"/><rect x="102" y="54" width="6" height="6" transform="rotate(0,105,57)"/><rect x="108" y="54" width="6" height="6" transform="rotate(0,111,57)"/><rect x="120" y="54" width="6" height="6" transform="rotate(0,123,57)"/><rect x="150" y="54" width="6" height="6" transform="rotate(0,153,57)"/><rect x="18" y="60" width="6" height="6" transform="rotate(0,21,63)"/><rect x="30" y="60" width="6" height="6" transform="rotate(0,33,63)"/><rect x="36" y="60" width="6" height="6" transform="rotate(0,39,63)"/><rect x="42" y="60" width="6" height="6" transform="rotate(0,45,63)"/><rect x="48" y="60" width="6" height="6" transform="rotate(0,51,63)"/><rect x="60" y="60" width="6" height="6" transform="rotate(0,63,63)"/><rect x="66" y="60" width="6" height="6" transform="rotate(0,69,63)"/><rect x="78" y="60" width="6" height="6" transform="rotate(0,81,63)"/><rect x="102" y="60" width="6" height="6" transform="rotate(0,105,63)"/><rect x="108" y="60" width="6" height="6" transform="rotate(0,111,63)"/><rect x="114" y="60" width="6" height="6" transform="rotate(0,117,63)"/><rect x="144" y="60" width="6" height="6" transform="rotate(0,147,63)"/><rect x="150" y="60" width="6" height="6" transform="rotate(0,153,63)"/><rect x="162" y="60" width="6" height="6" transform="rotate(0,165,63)"/><rect x="168" y="60" width="6" height="6" transform="rotate(0,171,63)"/><rect x="180" y="60" width="6" height="6" transform="rotate(0,183,63)"/><rect x="186" y="60" width="6" height="6" transform="rotate(0,189,63)"/><rect x="198" y="60" width="6" height="6" transform="rotate(0,201,63)"/><rect x="18" y="66" width="6" height="6" transform="rotate(0,21,69)"/><rect x="24" y="66" width="6" height="6" transform="rotate(0,27,69)"/><rect x="30" y="66" width="6" height="6" transform="rotate(0,33,69)"/><rect x="42" y="66" width="6" height="6" transform="rotate(0,45,69)"/><rect x="60" y="66" width="6" height="6" transform="rotate(0,63,69)"/><rect x="78" y="66" width="6" height="6" transform="rotate(0,81,69)"/><rect x="84" y="66" width="6" height="6" transform="rotate(0,87,69)"/><rect x="96" y="66" width="6" height="6" transform="rotate(0,99,69)"/><rect x="102" y="66" width="6" height="6" transform="rotate(0,105,69)"/><rect x="114" y="66" width="6" height="6" transform="rotate(0,117,69)"/><rect x="126" y="66" width="6" height="6" transform="rotate(0,129,69)"/><rect x="138" y="66" width="6" height="6" transform="rotate(0,141,69)"/><rect x="144" y="66" width="6" height="6" transform="rotate(0,147,69)"/><rect x="150" y="66" width="6" height="6" transform="rotate(0,153,69)"/><rect x="180" y="66" width="6" height="6" transform="rotate(0,183,69)"/><rect x="186" y="66" width="6" height="6" transform="rotate(0,189,69)"/><rect x="192" y="66" width="6" height="6" transform="rotate(0,195,69)"/><rect x="204" y="66" width="6" height="6" transform="rotate(0,207,69)"/><rect x="48" y="72" width="6" height="6" transform="rotate(0,51,75)"/><rect x="60" y="72" width="6" height="6" transform="rotate(0,63,75)"/><rect x="78" y="72" width="6" height="6" transform="rotate(0,81,75)"/><rect x="90" y="72" width="6" height="6" transform="rotate(0,93,75)"/><rect x="96" y="72" width="6" height="6" transform="rotate(0,99,75)"/><rect x="132" y="72" width="6" height="6" transform="rotate(0,135,75)"/><rect x="138" y="72" width="6" height="6" transform="rotate(0,141,75)"/><rect x="150" y="72" width="6" height="6" transform="rotate(0,153,75)"/><rect x="156" y="72" width="6" height="6" transform="rotate(0,159,75)"/><rect x="162" y="72" width="6" height="6" transform="rotate(0,165,75)"/><rect x="168" y="72" width="6" height="6" transform="rotate(0,171,75)"/><rect x="180" y="72" width="6" height="6" transform="rotate(0,183,75)"/><rect x="186" y="72" width="6" height="6" transform="rotate(0,189,75)"/><rect x="192" y="72" width="6" height="6" transform="rotate(0,195,75)"/><rect x="198" y="72" width="6" height="6" transform="rotate(0,201,75)"/><rect x="204" y="72" width="6" height="6" transform="rotate(0,207,75)"/><rect x="30" y="78" width="6" height="6" transform="rotate(0,33,81)"/><rect x="54" y="78" width="6" height="6" transform="rotate(0,57,81)"/><rect x="60" y="78" width="6" height="6" transform="rotate(0,63,81)"/><rect x="78" y="78" width="6" height="6" transform="rotate(0,81,81)"/><rect x="96" y="78" width="6" height="6" transform="rotate(0,99,81)"/><rect x="120" y="78" width="6" height="6" transform="rotate(0,123,81)"/><rect x="150" y="78" width="6" height="6" transform="rotate(0,153,81)"/><rect x="156" y="78" width="6" height="6" transform="rotate(0,159,81)"/><rect x="174" y="78" width="6" height="6" transform="rotate(0,177,81)"/><rect x="192" y="78" width="6" height="6" transform="rotate(0,195,81)"/><rect x="204" y="78" width="6" height="6" transform="rotate(0,207,81)"/><rect x="18" y="84" width="6" height="6" transform="rotate(0,21,87)"/><rect x="24" y="84" width="6" height="6" transform="rotate(0,27,87)"/><rect x="42" y="84" width="6" height="6" transform="rotate(0,45,87)"/><rect x="48" y="84" width="6" height="6" transform="rotate(0,51,87)"/><rect x="54" y="84" width="6" height="6" transform="rotate(0,57,87)"/><rect x="60" y="84" width="6" height="6" transform="rotate(0,63,87)"/><rect x="84" y="84" width="6" height="6" transform="rotate(0,87,87)"/><rect x="90" y="84" width="6" height="6" transform="rotate(0,93,87)"/><rect x="108" y="84" width="6" height="6" transform="rotate(0,111,87)"/><rect x="114" y="84" width="6" height="6" transform="rotate(0,117,87)"/><rect x="126" y="84" width="6" height="6" transform="rotate(0,129,87)"/><rect x="132" y="84" width="6" height="6" transform="rotate(0,135,87)"/><rect x="156" y="84" width="6" height="6" transform="rotate(0,159,87)"/><rect x="168" y="84" width="6" height="6" transform="rotate(0,171,87)"/><rect x="174" y="84" width="6" height="6" transform="rotate(0,177,87)"/><rect x="180" y="84" width="6" height="6" transform="rotate(0,183,87)"/><rect x="18" y="90" width="6" height="6" transform="rotate(0,21,93)"/><rect x="36" y="90" width="6" height="6" transform="rotate(0,39,93)"/><rect x="60" y="90" width="6" height="6" transform="rotate(0,63,93)"/><rect x="66" y="90" width="6" height="6" transform="rotate(0,69,93)"/><rect x="90" y="90" width="6" height="6" transform="rotate(0,93,93)"/><rect x="96" y="90" width="6" height="6" transform="rotate(0,99,93)"/><rect x="108" y="90" width="6" height="6" transform="rotate(0,111,93)"/><rect x="114" y="90" width="6" height="6" transform="rotate(0,117,93)"/><rect x="120" y="90" width="6" height="6" transform="rotate(0,123,93)"/><rect x="126" y="90" width="6" height="6" transform="rotate(0,129,93)"/><rect x="132" y="90" width="6" height="6" transform="rotate(0,135,93)"/><rect x="138" y="90" width="6" height="6" transform="rotate(0,141,93)"/><rect x="150" y="90" width="6" height="6" transform="rotate(0,153,93)"/><rect x="162" y="90" width="6" height="6" transform="rotate(0,165,93)"/><rect x="174" y="90" width="6" height="6" transform="rotate(0,177,93)"/><rect x="12" y="96" width="6" height="6" transform="rotate(0,15,99)"/><rect x="24" y="96" width="6" height="6" transform="rotate(0,27,99)"/><rect x="48" y="96" width="6" height="6" transform="rotate(0,51,99)"/><rect x="60" y="96" width="6" height="6" transform="rotate(0,63,99)"/><rect x="78" y="96" width="6" height="6" transform="rotate(0,81,99)"/><rect x="120" y="96" width="6" height="6" transform="rotate(0,123,99)"/><rect x="126" y="96" width="6" height="6" transform="rotate(0,129,99)"/><rect x="132" y="96" width="6" height="6" transform="rotate(0,135,99)"/><rect x="168" y="96" width="6" height="6" transform="rotate(0,171,99)"/><rect x="192" y="96" width="6" height="6" transform="rotate(0,195,99)"/><rect x="12" y="102" width="6" height="6" transform="rotate(0,15,105)"/><rect x="30" y="102" width="6" height="6" transform="rotate(0,33,105)"/><rect x="36" y="102" width="6" height="6" transform="rotate(0,39,105)"/><rect x="42" y="102" width="6" height="6" transform="rotate(0,45,105)"/><rect x="66" y="102" width="6" height="6" transform="rotate(0,69,105)"/><rect x="72" y="102" width="6" height="6" transform="rotate(0,75,105)"/><rect x="78" y="102" width="6" height="6" transform="rotate(0,81,105)"/><rect x="84" y="102" width="6" height="6" transform="rotate(0,87,105)"/><rect x="90" y="102" width="6" height="6" transform="rotate(0,93,105)"/><rect x="96" y="102" width="6" height="6" transform="rotate(0,99,105)"/><rect x="108" y="102" width="6" height="6" transform="rotate(0,111,105)"/><rect x="120" y="102" width="6" height="6" transform="rotate(0,123,105)"/><rect x="132" y="102" width="6" height="6" transform="rotate(0,135,105)"/><rect x="144" y="102" width="6" height="6" transform="rotate(0,147,105)"/><rect x="150" y="102" width="6" height="6" transform="rotate(0,153,105)"/><rect x="162" y="102" width="6" height="6" transform="rotate(0,165,105)"/><rect x="174" y="102" width="6" height="6" transform="rotate(0,177,105)"/><rect x="186" y="102" width="6" height="6" transform="rotate(0,189,105)"/><rect x="192" y="102" width="6" height="6" transform="rotate(0,195,105)"/><rect x="204" y="102" width="6" height="6" transform="rotate(0,207,105)"/><rect x="30" y="108" width="6" height="6" transform="rotate(0,33,111)"/><rect x="36" y="108" width="6" height="6" transform="rotate(0,39,111)"/><rect x="48" y="108" width="6" height="6" transform="rotate(0,51,111)"/><rect x="54" y="108" width="6" height="6" transform="rotate(0,57,111)"/><rect x="78" y="108" width="6" height="6" transform="rotate(0,81,111)"/><rect x="84" y="108" width="6" height="6" transform="rotate(0,87,111)"/><rect x="96" y="108" width="6" height="6" transform="rotate(0,99,111)"/><rect x="102" y="108" width="6" height="6" transform="rotate(0,105,111)"/><rect x="108" y="108" width="6" height="6" transform="rotate(0,111,111)"/><rect x="114" y="108" width="6" height="6" transform="rotate(0,117,111)"/><rect x="120" y="108" width="6" height="6" transform="rotate(0,123,111)"/><rect x="126" y="108" width="6" height="6" transform="rotate(0,129,111)"/><rect x="144" y="108" width="6" height="6" transform="rotate(0,147,111)"/><rect x="156" y="108" width="6" height="6" transform="rotate(0,159,111)"/><rect x="162" y="108" width="6" height="6" transform="rotate(0,165,111)"/><rect x="168" y="108" width="6" height="6" transform="rotate(0,171,111)"/><rect x="174" y="108" width="6" height="6" transform="rotate(0,177,111)"/><rect x="180" y="108" width="6" height="6" transform="rotate(0,183,111)"/><rect x="186" y="108" width="6" height="6" transform="rotate(0,189,111)"/><rect x="18" y="114" width="6" height="6" transform="rotate(0,21,117)"/><rect x="30" y="114" width="6" height="6" transform="rotate(0,33,117)"/><rect x="36" y="114" width="6" height="6" transform="rotate(0,39,117)"/><rect x="42" y="114" width="6" height="6" transform="rotate(0,45,117)"/><rect x="66" y="114" width="6" height="6" transform="rotate(0,69,117)"/><rect x="84" y="114" width="6" height="6" transform="rotate(0,87,117)"/><rect x="90" y="114" width="6" height="6" transform="rotate(0,93,117)"/><rect x="96" y="114" width="6" height="6" transform="rotate(0,99,117)"/><rect x="102" y="114" width="6" height="6" transform="rotate(0,105,117)"/><rect x="114" y="114" width="6" height="6" transform="rotate(0,117,117)"/><rect x="120" y="114" width="6" height="6" transform="rotate(0,123,117)"/><rect x="132" y="114" width="6" height="6" transform="rotate(0,135,117)"/><rect x="138" y="114" width="6" height="6" transform="rotate(0,141,117)"/><rect x="144" y="114" width="6" height="6" transform="rotate(0,147,117)"/><rect x="168" y="114" width="6" height="6" transform="rotate(0,171,117)"/><rect x="180" y="114" width="6" height="6" transform="rotate(0,183,117)"/><rect x="192" y="114" width="6" height="6" transform="rotate(0,195,117)"/><rect x="204" y="114" width="6" height="6" transform="rotate(0,207,117)"/><rect x="12" y="120" width="6" height="6" transform="rotate(0,15,123)"/><rect x="30" y="120" width="6" height="6" transform="rotate(0,33,123)"/><rect x="36" y="120" width="6" height="6" transform="rotate(0,39,123)"/><rect x="42" y="120" width="6" height="6" transform="rotate(0,45,123)"/><rect x="48" y="120" width="6" height="6" transform="rotate(0,51,123)"/><rect x="60" y="120" width="6" height="6" transform="rotate(0,63,123)"/><rect x="66" y="120" width="6" height="6" transform="rotate(0,69,123)"/><rect x="78" y="120" width="6" height="6" transform="rotate(0,81,123)"/><rect x="90" y="120" width="6" height="6" transform="rotate(0,93,123)"/><rect x="96" y="120" width="6" height="6" transform="rotate(0,99,123)"/><rect x="108" y="120" width="6" height="6" transform="rotate(0,111,123)"/><rect x="114" y="120" width="6" height="6" transform="rotate(0,117,123)"/><rect x="126" y="120" width="6" height="6" transform="rotate(0,129,123)"/><rect x="150" y="120" width="6" height="6" transform="rotate(0,153,123)"/><rect x="156" y="120" width="6" height="6" transform="rotate(0,159,123)"/><rect x="162" y="120" width="6" height="6" transform="rotate(0,165,123)"/><rect x="174" y="120" width="6" height="6" transform="rotate(0,177,123)"/><rect x="186" y="120" width="6" height="6" transform="rotate(0,189,123)"/><rect x="192" y="120" width="6" height="6" transform="rotate(0,195,123)"/><rect x="204" y="120" width="6" height="6" transform="rotate(0,207,123)"/><rect x="12" y="126" width="6" height="6" transform="rotate(0,15,129)"/><rect x="18" y="126" width="6" height="6" transform="rotate(0,21,129)"/><rect x="36" y="126" width="6" height="6" transform="rotate(0,39,129)"/><rect x="42" y="126" width="6" height="6" transform="rotate(0,45,129)"/><rect x="54" y="126" width="6" height="6" transform="rotate(0,57,129)"/><rect x="60" y="126" width="6" height="6" transform="rotate(0,63,129)"/><rect x="72" y="126" width="6" height="6" transform="rotate(0,75,129)"/><rect x="84" y="126" width="6" height="6" transform="rotate(0,87,129)"/><rect x="90" y="126" width="6" height="6" transform="rotate(0,93,129)"/><rect x="96" y="126" width="6" height="6" transform="rotate(0,99,129)"/><rect x="108" y="126" width="6" height="6" transform="rotate(0,111,129)"/><rect x="120" y="126" width="6" height="6" transform="rotate(0,123,129)"/><rect x="168" y="126" width="6" height="6" transform="rotate(0,171,129)"/><rect x="180" y="126" width="6" height="6" transform="rotate(0,183,129)"/><rect x="186" y="126" width="6" height="6" transform="rotate(0,189,129)"/><rect x="192" y="126" width="6" height="6" transform="rotate(0,195,129)"/><rect x="12" y="132" width="6" height="6" transform="rotate(0,15,135)"/><rect x="18" y="132" width="6" height="6" transform="rotate(0,21,135)"/><rect x="24" y="132" width="6" height="6" transform="rotate(0,27,135)"/><rect x="30" y="132" width="6" height="6" transform="rotate(0,33,135)"/><rect x="42" y="132" width="6" height="6" transform="rotate(0,45,135)"/><rect x="48" y="132" width="6" height="6" transform="rotate(0,51,135)"/><rect x="60" y="132" width="6" height="6" transform="rotate(0,63,135)"/><rect x="66" y="132" width="6" height="6" transform="rotate(0,69,135)"/><rect x="78" y="132" width="6" height="6" transform="rotate(0,81,135)"/><rect x="102" y="132" width="6" height="6" transform="rotate(0,105,135)"/><rect x="108" y="132" width="6" height="6" transform="rotate(0,111,135)"/><rect x="132" y="132" width="6" height="6" transform="rotate(0,135,135)"/><rect x="156" y="132" width="6" height="6" transform="rotate(0,159,135)"/><rect x="174" y="132" width="6" height="6" transform="rotate(0,177,135)"/><rect x="186" y="132" width="6" height="6" transform="rotate(0,189,135)"/><rect x="204" y="132" width="6" height="6" transform="rotate(0,207,135)"/><rect x="12" y="138" width="6" height="6" transform="rotate(0,15,141)"/><rect x="18" y="138" width="6" height="6" transform="rotate(0,21,141)"/><rect x="24" y="138" width="6" height="6" transform="rotate(0,27,141)"/><rect x="30" y="138" width="6" height="6" transform="rotate(0,33,141)"/><rect x="54" y="138" width="6" height="6" transform="rotate(0,57,141)"/><rect x="60" y="138" width="6" height="6" transform="rotate(0,63,141)"/><rect x="90" y="138" width="6" height="6" transform="rotate(0,93,141)"/><rect x="96" y="138" width="6" height="6" transform="rotate(0,99,141)"/><rect x="102" y="138" width="6" height="6" transform="rotate(0,105,141)"/><rect x="126" y="138" width="6" height="6" transform="rotate(0,129,141)"/><rect x="150" y="138" width="6" height="6" transform="rotate(0,153,141)"/><rect x="162" y="138" width="6" height="6" transform="rotate(0,165,141)"/><rect x="180" y="138" width="6" height="6" transform="rotate(0,183,141)"/><rect x="186" y="138" width="6" height="6" transform="rotate(0,189,141)"/><rect x="12" y="144" width="6" height="6" transform="rotate(0,15,147)"/><rect x="30" y="144" width="6" height="6" transform="rotate(0,33,147)"/><rect x="42" y="144" width="6" height="6" transform="rotate(0,45,147)"/><rect x="48" y="144" width="6" height="6" transform="rotate(0,51,147)"/><rect x="60" y="144" width="6" height="6" transform="rotate(0,63,147)"/><rect x="66" y="144" width="6" height="6" transform="rotate(0,69,147)"/><rect x="78" y="144" width="6" height="6" transform="rotate(0,81,147)"/><rect x="90" y="144" width="6" height="6" transform="rotate(0,93,147)"/><rect x="96" y="144" width="6" height="6" transform="rotate(0,99,147)"/><rect x="102" y="144" width="6" height="6" transform="rotate(0,105,147)"/><rect x="120" y="144" width="6" height="6" transform="rotate(0,123,147)"/><rect x="132" y="144" width="6" height="6" transform="rotate(0,135,147)"/><rect x="150" y="144" width="6" height="6" transform="rotate(0,153,147)"/><rect x="162" y="144" width="6" height="6" transform="rotate(0,165,147)"/><rect x="168" y="144" width="6" height="6" transform="rotate(0,171,147)"/><rect x="174" y="144" width="6" height="6" transform="rotate(0,177,147)"/><rect x="198" y="144" width="6" height="6" transform="rotate(0,201,147)"/><rect x="204" y="144" width="6" height="6" transform="rotate(0,207,147)"/><rect x="12" y="150" width="6" height="6" transform="rotate(0,15,153)"/><rect x="30" y="150" width="6" height="6" transform="rotate(0,33,153)"/><rect x="42" y="150" width="6" height="6" transform="rotate(0,45,153)"/><rect x="54" y="150" width="6" height="6" transform="rotate(0,57,153)"/><rect x="90" y="150" width="6" height="6" transform="rotate(0,93,153)"/><rect x="96" y="150" width="6" height="6" transform="rotate(0,99,153)"/><rect x="102" y="150" width="6" height="6" transform="rotate(0,105,153)"/><rect x="120" y="150" width="6" height="6" transform="rotate(0,123,153)"/><rect x="132" y="150" width="6" height="6" transform="rotate(0,135,153)"/><rect x="156" y="150" width="6" height="6" transform="rotate(0,159,153)"/><rect x="162" y="150" width="6" height="6" transform="rotate(0,165,153)"/><rect x="168" y="150" width="6" height="6" transform="rotate(0,171,153)"/><rect x="174" y="150" width="6" height="6" transform="rotate(0,177,153)"/><rect x="180" y="150" width="6" height="6" transform="rotate(0,183,153)"/><rect x="192" y="150" width="6" height="6" transform="rotate(0,195,153)"/><rect x="198" y="150" width="6" height="6" transform="rotate(0,201,153)"/><rect x="204" y="150" width="6" height="6" transform="rotate(0,207,153)"/><rect x="12" y="156" width="6" height="6" transform="rotate(0,15,159)"/><rect x="18" y="156" width="6" height="6" transform="rotate(0,21,159)"/><rect x="48" y="156" width="6" height="6" transform="rotate(0,51,159)"/><rect x="54" y="156" width="6" height="6" transform="rotate(0,57,159)"/><rect x="60" y="156" width="6" height="6" transform="rotate(0,63,159)"/><rect x="66" y="156" width="6" height="6" transform="rotate(0,69,159)"/><rect x="102" y="156" width="6" height="6" transform="rotate(0,105,159)"/><rect x="108" y="156" width="6" height="6" transform="rotate(0,111,159)"/><rect x="114" y="156" width="6" height="6" transform="rotate(0,117,159)"/><rect x="120" y="156" width="6" height="6" transform="rotate(0,123,159)"/><rect x="126" y="156" width="6" height="6" transform="rotate(0,129,159)"/><rect x="132" y="156" width="6" height="6" transform="rotate(0,135,159)"/><rect x="150" y="156" width="6" height="6" transform="rotate(0,153,159)"/><rect x="156" y="156" width="6" height="6" transform="rotate(0,159,159)"/><rect x="162" y="156" width="6" height="6" transform="rotate(0,165,159)"/><rect x="168" y="156" width="6" height="6" transform="rotate(0,171,159)"/><rect x="174" y="156" width="6" height="6" transform="rotate(0,177,159)"/><rect x="180" y="156" width="6" height="6" transform="rotate(0,183,159)"/><rect x="186" y="156" width="6" height="6" transform="rotate(0,189,159)"/><rect x="198" y="156" width="6" height="6" transform="rotate(0,201,159)"/><rect x="60" y="162" width="6" height="6" transform="rotate(0,63,165)"/><rect x="72" y="162" width="6" height="6" transform="rotate(0,75,165)"/><rect x="84" y="162" width="6" height="6" transform="rotate(0,87,165)"/><rect x="102" y="162" width="6" height="6" transform="rotate(0,105,165)"/><rect x="108" y="162" width="6" height="6" transform="rotate(0,111,165)"/><rect x="114" y="162" width="6" height="6" transform="rotate(0,117,165)"/><rect x="132" y="162" width="6" height="6" transform="rotate(0,135,165)"/><rect x="150" y="162" width="6" height="6" transform="rotate(0,153,165)"/><rect x="156" y="162" width="6" height="6" transform="rotate(0,159,165)"/><rect x="180" y="162" width="6" height="6" transform="rotate(0,183,165)"/><rect x="192" y="162" width="6" height="6" transform="rotate(0,195,165)"/><rect x="198" y="162" width="6" height="6" transform="rotate(0,201,165)"/><rect x="72" y="168" width="6" height="6" transform="rotate(0,75,171)"/><rect x="84" y="168" width="6" height="6" transform="rotate(0,87,171)"/><rect x="90" y="168" width="6" height="6" transform="rotate(0,93,171)"/><rect x="120" y="168" width="6" height="6" transform="rotate(0,123,171)"/><rect x="126" y="168" width="6" height="6" transform="rotate(0,129,171)"/><rect x="132" y="168" width="6" height="6" transform="rotate(0,135,171)"/><rect x="138" y="168" width="6" height="6" transform="rotate(0,141,171)"/><rect x="150" y="168" width="6" height="6" transform="rotate(0,153,171)"/><rect x="156" y="168" width="6" height="6" transform="rotate(0,159,171)"/><rect x="168" y="168" width="6" height="6" transform="rotate(0,171,171)"/><rect x="180" y="168" width="6" height="6" transform="rotate(0,183,171)"/><rect x="192" y="168" width="6" height="6" transform="rotate(0,195,171)"/><rect x="60" y="174" width="6" height="6" transform="rotate(0,63,177)"/><rect x="96" y="174" width="6" height="6" transform="rotate(0,99,177)"/><rect x="120" y="174" width="6" height="6" transform="rotate(0,123,177)"/><rect x="150" y="174" width="6" height="6" transform="rotate(0,153,177)"/><rect x="156" y="174" width="6" height="6" transform="rotate(0,159,177)"/><rect x="180" y="174" width="6" height="6" transform="rotate(0,183,177)"/><rect x="186" y="174" width="6" height="6" transform="rotate(0,189,177)"/><rect x="192" y="174" width="6" height="6" transform="rotate(0,195,177)"/><rect x="198" y="174" width="6" height="6" transform="rotate(0,201,177)"/><rect x="60" y="180" width="6" height="6" transform="rotate(0,63,183)"/><rect x="72" y="180" width="6" height="6" transform="rotate(0,75,183)"/><rect x="78" y="180" width="6" height="6" transform="rotate(0,81,183)"/><rect x="90" y="180" width="6" height="6" transform="rotate(0,93,183)"/><rect x="102" y="180" width="6" height="6" transform="rotate(0,105,183)"/><rect x="114" y="180" width="6" height="6" transform="rotate(0,117,183)"/><rect x="126" y="180" width="6" height="6" transform="rotate(0,129,183)"/><rect x="144" y="180" width="6" height="6" transform="rotate(0,147,183)"/><rect x="150" y="180" width="6" height="6" transform="rotate(0,153,183)"/><rect x="156" y="180" width="6" height="6" transform="rotate(0,159,183)"/><rect x="162" y="180" width="6" height="6" transform="rotate(0,165,183)"/><rect x="168" y="180" width="6" height="6" transform="rotate(0,171,183)"/><rect x="174" y="180" width="6" height="6" transform="rotate(0,177,183)"/><rect x="180" y="180" width="6" height="6" transform="rotate(0,183,183)"/><rect x="204" y="180" width="6" height="6" transform="rotate(0,207,183)"/><rect x="60" y="186" width="6" height="6" transform="rotate(0,63,189)"/><rect x="66" y="186" width="6" height="6" transform="rotate(0,69,189)"/><rect x="72" y="186" width="6" height="6" transform="rotate(0,75,189)"/><rect x="102" y="186" width="6" height="6" transform="rotate(0,105,189)"/><rect x="126" y="186" width="6" height="6" transform="rotate(0,129,189)"/><rect x="132" y="186" width="6" height="6" transform="rotate(0,135,189)"/><rect x="138" y="186" width="6" height="6" transform="rotate(0,141,189)"/><rect x="144" y="186" width="6" height="6" transform="rotate(0,147,189)"/><rect x="156" y="186" width="6" height="6" transform="rotate(0,159,189)"/><rect x="162" y="186" width="6" height="6" transform="rotate(0,165,189)"/><rect x="174" y="186" width="6" height="6" transform="rotate(0,177,189)"/><rect x="204" y="186" width="6" height="6" transform="rotate(0,207,189)"/><rect x="66" y="192" width="6" height="6" transform="rotate(0,69,195)"/><rect x="72" y="192" width="6" height="6" transform="rotate(0,75,195)"/><rect x="78" y="192" width="6" height="6" transform="rotate(0,81,195)"/><rect x="84" y="192" width="6" height="6" transform="rotate(0,87,195)"/><rect x="96" y="192" width="6" height="6" transform="rotate(0,99,195)"/><rect x="102" y="192" width="6" height="6" transform="rotate(0,105,195)"/><rect x="114" y="192" width="6" height="6" transform="rotate(0,117,195)"/><rect x="126" y="192" width="6" height="6" transform="rotate(0,129,195)"/><rect x="150" y="192" width="6" height="6" transform="rotate(0,153,195)"/><rect x="162" y="192" width="6" height="6" transform="rotate(0,165,195)"/><rect x="174" y="192" width="6" height="6" transform="rotate(0,177,195)"/><rect x="180" y="192" width="6" height="6" transform="rotate(0,183,195)"/><rect x="198" y="192" width="6" height="6" transform="rotate(0,201,195)"/><rect x="204" y="192" width="6" height="6" transform="rotate(0,207,195)"/><rect x="60" y="198" width="6" height="6" transform="rotate(0,63,201)"/><rect x="66" y="198" width="6" height="6" transform="rotate(0,69,201)"/><rect x="72" y="198" width="6" height="6" transform="rotate(0,75,201)"/><rect x="78" y="198" width="6" height="6" transform="rotate(0,81,201)"/><rect x="84" y="198" width="6" height="6" transform="rotate(0,87,201)"/><rect x="90" y="198" width="6" height="6" transform="rotate(0,93,201)"/><rect x="102" y="198" width="6" height="6" transform="rotate(0,105,201)"/><rect x="120" y="198" width="6" height="6" transform="rotate(0,123,201)"/><rect x="126" y="198" width="6" height="6" transform="rotate(0,129,201)"/><rect x="132" y="198" width="6" height="6" transform="rotate(0,135,201)"/><rect x="144" y="198" width="6" height="6" transform="rotate(0,147,201)"/><rect x="162" y="198" width="6" height="6" transform="rotate(0,165,201)"/><rect x="168" y="198" width="6" height="6" transform="rotate(0,171,201)"/><rect x="174" y="198" width="6" height="6" transform="rotate(0,177,201)"/><rect x="180" y="198" width="6" height="6" transform="rotate(0,183,201)"/><rect x="186" y="198" width="6" height="6" transform="rotate(0,189,201)"/><rect x="192" y="198" width="6" height="6" transform="rotate(0,195,201)"/><rect x="198" y="198" width="6" height="6" transform="rotate(0,201,201)"/><rect x="204" y="198" width="6" height="6" transform="rotate(0,207,201)"/><rect x="66" y="204" width="6" height="6" transform="rotate(0,69,207)"/><rect x="78" y="204" width="6" height="6" transform="rotate(0,81,207)"/><rect x="150" y="204" width="6" height="6" transform="rotate(0,153,207)"/><rect x="156" y="204" width="6" height="6" transform="rotate(0,159,207)"/><rect x="168" y="204" width="6" height="6" transform="rotate(0,171,207)"/><rect x="174" y="204" width="6" height="6" transform="rotate(0,177,207)"/><rect x="180" y="204" width="6" height="6" transform="rotate(0,183,207)"/></g></svg>